<svg xmlns="http://www.w3.org/2000/svg" width="910.9700317382812" height="575.387451171875" viewBox="-197.05438232421875 -57.76861572265625 910.9700317382812 575.387451171875"><title>Neo4j Graph Visualization</title><desc>Created using Neo4j (http://www.neo4j.com/)</desc><g class="layer relationships"><g class="relationship" transform="translate(115.94810614713414 182.26894019390048) rotate(265.355764777627)"><path class="outline" fill="#A5ABB6" stroke="none" d="M 40 0.5 L 85.96207537869766 0.5 L 85.96207537869766 -0.5 L 40 -0.5 Z M 133.77066912869765 0.5 L 179.73274450739532 0.5 L 179.73274450739532 3.5 L 186.73274450739532 0 L 179.73274450739532 -3.5 L 179.73274450739532 -0.5 L 133.77066912869765 -0.5 Z"/><text text-anchor="middle" pointer-events="none" font-size="8px" fill="#000000" x="109.86637225369766" y="3" transform="rotate(180 109.86637225369766 0)" font-family="sans-serif">awarded_to</text></g><g class="relationship" transform="translate(363.32087929698883 338.24912913745914) rotate(375.7531843815711)"><path class="outline" fill="#A5ABB6" stroke="none" d="M 17.324116139070416,-18.03122292025696 L 18.031222920256962,-17.324116139070412 A 213.11238364934232 213.11238364934232 0 0 1 144.9323261651321,-78.41103493152062 L 144.82068503015446,-79.40478351993767 A 214.11238364934232 214.11238364934232 0 0 0 17.324116139070416,-18.03122292025696 Z M 204.5500296223018,-77.72481623697314 L 204.38270816962282,-76.73891384247693 A 213.11238364934232 213.11238364934232 0 0 1 327.6496041688535,-8.615687237767471 L 325.41240189706787,-6.616956141517328 L 332.68617710540144,-3.7286704529760684 L 330.6325405312343,-11.280662032767662 L 328.3953382594487,-9.281930936517519 A 214.11238364934232 214.11238364934232 0 0 0 204.5500296223018,-77.72481623697314"/><text text-anchor="middle" pointer-events="none" font-size="8px" fill="#000000" x="174.73019196306245" y="-77.15884489367531" font-family="sans-serif">Month_Expired</text></g><g class="relationship" transform="translate(115.94810614713414 182.26894019390048) rotate(392.2333629463598)"><path class="outline" fill="#6DCE9E" stroke="none" d="M 27.22361107568208,29.34493141924172 L 29.344931419241725,27.223611075682076 A 166.36222997448937 166.36222997448937 0 0 0 123.53895445235423,74.29012350813056 L 123.116229211437,77.26019141487805 A 169.36222997448937 169.36222997448937 0 0 1 27.22361107568208,29.34493141924172 Z M 175.77060112650696,76.48505943331512 L 175.26063248538802,73.52872183671434 A 166.36222997448937 166.36222997448937 0 0 0 268.0283939805751,23.7099202163575 L 265.84554992459647,21.651962046889842 L 275.2936905169674,18.190367133155377 L 272.3940820925324,27.825836555292817 L 270.21123803655377,25.76787838582516 A 169.36222997448937 169.36222997448937 0 0 1 175.77060112650696,76.48505943331512"/><text text-anchor="middle" pointer-events="none" font-size="8px" fill="#000000" x="149.45164676656412" y="80.43179419971335" font-family="sans-serif">Year_Started</text></g><g class="relationship" transform="translate(115.94810614713414 182.26894019390048) rotate(467.9375870317413)"><path class="outline" fill="#A5ABB6" stroke="none" d="M 38.50762352901147,-10.835724717245364 L 38.766442574113995,-9.869798890956295 A 317.3880576657474 317.3880576657474 0 0 1 100.78292756682886,-20.04555563715246 L 100.71950492526094,-21.043542394848487 A 318.3880576657474 318.3880576657474 0 0 0 38.50762352901147,-10.835724717245364 Z M 146.78104862094892,-20.631905745839788 L 146.69980018398022,-19.635211865307667 A 317.3880576657474 317.3880576657474 0 0 1 208.52452003553455,-8.352727587179658 L 207.69639810718814,-5.469289696086491 L 215.3905621028097,-6.901016069553533 L 209.62868260666312,-12.197311441970545 L 208.8005606783167,-9.313873550877378 A 318.3880576657474 318.3880576657474 0 0 0 146.78104862094892,-20.631905745839788"/><text text-anchor="middle" pointer-events="none" font-size="8px" fill="#000000" x="123.75326266959783" y="-18.171841555049696" transform="rotate(180 123.75326266959783 -21.171841555049696)" font-family="sans-serif">Funded_by</text></g><g class="relationship" transform="translate(115.94810614713414 182.26894019390048) rotate(531.558231393951)"><path class="outline" fill="#A5ABB6" stroke="none" d="M 40 0.5 L 124.5409751781904 0.5 L 124.5409751781904 -0.5 L 40 -0.5 Z M 170.5722251781904 0.5 L 255.1132003563808 0.5 L 255.1132003563808 3.5 L 262.1132003563808 0 L 255.1132003563808 -3.5 L 255.1132003563808 -0.5 L 170.5722251781904 -0.5 Z"/><text text-anchor="middle" pointer-events="none" font-size="8px" fill="#000000" x="147.5566001781904" y="3" transform="rotate(180 147.5566001781904 0)" font-family="sans-serif">Funded_by</text></g><g class="relationship" transform="translate(479.61978551238883 43.728524978231064) rotate(220.9207524174334)"><path class="outline" fill="#A5ABB6" stroke="none" d="M 5 0.5 L 35.95711508863471 0.5 L 35.95711508863471 -0.5 L 5 -0.5 Z M 81.08992758863471 0.5 L 112.04704267726942 0.5 L 112.04704267726942 3.5 L 119.04704267726942 0 L 112.04704267726942 -3.5 L 112.04704267726942 -0.5 L 81.08992758863471 -0.5 Z"/><text text-anchor="middle" pointer-events="none" font-size="8px" fill="#000000" x="58.52352133863471" y="3" transform="rotate(180 58.52352133863471 0)" font-family="sans-serif">In_Country</text></g><g class="relationship" transform="translate(363.32087929698883 338.24912913745914) rotate(375.7531843815711)"><path class="outline" fill="#A5ABB6" stroke="none" d="M 24.018736134675446,-6.953439040707552 L 24.277555179777966,-5.987513214418485 A 558.0998852559076 558.0998852559076 0 0 1 131.35020916266325,-23.751481266351334 L 131.28324225158113,-24.749236463190755 A 559.0998852559076 559.0998852559076 0 0 0 24.018736134675446,-6.953439040707552 Z M 217.76171780203876,-23.849683905471807 L 217.67401024826944,-22.853537638595412 A 558.0998852559076 558.0998852559076 0 0 1 324.3539726667471,-2.8661063308731634 L 323.51740447049036,0.014892394050495472 L 331.2157310576118,-1.3942803270947135 L 325.4693969284228,-6.707437964104708 L 324.63282873216605,-3.8264392391810493 A 559.0998852559076 559.0998852559076 0 0 0 217.76171780203876,-23.849683905471807"/><text text-anchor="middle" pointer-events="none" font-size="8px" fill="#000000" x="174.53469854365477" y="-22.474087171005294" font-family="sans-serif">Month_Amended_Max</text></g><g class="relationship" transform="translate(115.94810614713414 182.26894019390048) rotate(325.6869048616944)"><path class="outline" fill="#A5ABB6" stroke="none" d="M 40 0.5 L 87.87537821592989 0.5 L 87.87537821592989 -0.5 L 40 -0.5 Z M 153.46131571592989 0.5 L 201.33669393185977 0.5 L 201.33669393185977 3.5 L 208.33669393185977 0 L 201.33669393185977 -3.5 L 201.33669393185977 -0.5 L 153.46131571592989 -0.5 Z"/><text text-anchor="middle" pointer-events="none" font-size="8px" fill="#000000" x="120.66834696592989" y="3" font-family="sans-serif">Administered_by</text></g><g class="relationship" transform="translate(115.94810614713414 182.26894019390048) rotate(392.2333629463598)"><path class="outline" fill="#A5ABB6" stroke="none" d="M 38.50762352901147,10.835724717245364 L 38.766442574113995,9.869798890956295 A 418.98011984342304 418.98011984342304 0 0 0 123.42905887602608,23.470963509653473 L 123.37230816851807,24.46935188959253 A 419.98011984342304 419.98011984342304 0 0 1 38.50762352901147,10.835724717245364 Z M 177.1364382900459,24.078360614636722 L 177.06517310446458,23.08090321037122 A 418.98011984342304 418.98011984342304 0 0 0 261.5210205302626,8.249850865377658 L 260.7025004763943,5.363672610069201 L 268.3918564682937,6.821000448902937 L 262.61238060208706,12.098088539122266 L 261.79386054821873,9.21191028381381 A 419.98011984342304 419.98011984342304 0 0 1 177.1364382900459,24.078360614636722"/><text text-anchor="middle" pointer-events="none" font-size="8px" fill="#000000" x="150.25700037785177" y="27.635108194553652" font-family="sans-serif">Year_Expired</text></g><g class="relationship" transform="translate(98.80443109696893 -28.768614526600118) rotate(379.20749536755596)"><path class="outline" fill="#A5ABB6" stroke="none" d="M 25 0.5 L 79.91577123317221 0.5 L 79.91577123317221 -0.5 L 25 -0.5 Z M 134.38842748317222 0.5 L 189.30419871634442 0.5 L 189.30419871634442 3.5 L 196.30419871634442 0 L 189.30419871634442 -3.5 L 189.30419871634442 -0.5 L 134.38842748317222 -0.5 Z"/><text text-anchor="middle" pointer-events="none" font-size="8px" fill="#000000" x="107.15209935817221" y="3" font-family="sans-serif">Employed_by</text></g><g class="relationship" transform="translate(115.94810614713414 182.26894019390048) rotate(467.9375870317413)"><path class="outline" fill="#A5ABB6" stroke="none" d="M 38.50762352901147,10.835724717245364 L 38.766442574113995,9.869798890956295 A 317.3880576657474 317.3880576657474 0 0 0 93.70076376850116,19.515862364220766 L 93.61502723191646,20.512180208231655 A 318.3880576657474 318.3880576657474 0 0 1 38.50762352901147,10.835724717245364 Z M 153.8748951660625,19.973657872332524 L 153.77136622461407,18.979031430756322 A 317.3880576657474 317.3880576657474 0 0 0 208.52452003553455,8.352727587179658 L 207.69639810718814,5.469289696086491 L 215.3905621028097,6.901016069553533 L 209.62868260666312,12.197311441970545 L 208.8005606783167,9.313873550877378 A 318.3880576657474 318.3880576657474 0 0 1 153.8748951660625,19.973657872332524"/><text text-anchor="middle" pointer-events="none" font-size="8px" fill="#000000" x="123.75326266959789" y="24.171841555049696" transform="rotate(180 123.75326266959789 21.171841555049696)" font-family="sans-serif">Referenced_by</text></g><g class="relationship" transform="translate(314.8718643231803 46.50572140049459) rotate(359.0342423568411)"><path class="outline" fill="#A5ABB6" stroke="none" d="M 32.5 0.5 L 74.73527310985968 0.5 L 74.73527310985968 -0.5 L 32.5 -0.5 Z M 110.53605435985968 0.5 L 152.77132746971935 0.5 L 152.77132746971935 3.5 L 159.77132746971935 0 L 152.77132746971935 -3.5 L 152.77132746971935 -0.5 L 110.53605435985968 -0.5 Z"/><text text-anchor="middle" pointer-events="none" font-size="8px" fill="#000000" x="92.63566373485968" y="3" font-family="sans-serif">In_State</text></g><g class="relationship" transform="translate(363.32087929698883 338.24912913745914) rotate(375.7531843815711)"><path class="outline" fill="#A5ABB6" stroke="none" d="M 24.018736134675446,6.953439040707552 L 24.277555179777966,5.987513214418485 A 558.0998852559076 558.0998852559076 0 0 0 132.45812329742742,23.824734795997188 L 132.39314154019326,24.822621248068117 A 559.0998852559076 559.0998852559076 0 0 1 24.018736134675446,6.953439040707552 Z M 216.65358521280564,23.94614074655874 L 216.5678596529849,22.949821958020948 A 558.0998852559076 558.0998852559076 0 0 0 324.3539726667471,2.8661063308731634 L 323.51740447049036,-0.014892394050495472 L 331.2157310576118,1.3942803270947135 L 325.4693969284228,6.707437964104708 L 324.63282873216605,3.8264392391810493 A 559.0998852559076 559.0998852559076 0 0 1 216.65358521280564,23.94614074655874"/><text text-anchor="middle" pointer-events="none" font-size="8px" fill="#000000" x="174.53469854365483" y="28.474087171005294" font-family="sans-serif">Month_Amended_Min</text></g><g class="relationship" transform="translate(42.211582557213674 410.0505983190229) rotate(182.90128205685767)"><path class="outline" fill="#A5ABB6" stroke="none" d="M 25 0.5 L 65.23796749315842 0.5 L 65.23796749315842 -0.5 L 25 -0.5 Z M 113.03484249315842 0.5 L 153.27280998631684 0.5 L 153.27280998631684 3.5 L 160.27280998631684 0 L 153.27280998631684 -3.5 L 153.27280998631684 -0.5 L 113.03484249315842 -0.5 Z"/><text text-anchor="middle" pointer-events="none" font-size="8px" fill="#000000" x="89.13640499315842" y="3" transform="rotate(180 89.13640499315842 0)" font-family="sans-serif">Program_of</text></g><g class="relationship" transform="translate(115.94810614713414 182.26894019390048) rotate(392.2333629463598)"><path class="outline" fill="#A5ABB6" stroke="none" d="M 38.50762352901147,-10.835724717245364 L 38.766442574113995,-9.869798890956295 A 418.98011984342304 418.98011984342304 0 0 1 110.1389095745951,-22.503277745537275 L 110.05043862865097,-23.499356503328897 A 419.98011984342304 419.98011984342304 0 0 0 38.50762352901147,-10.835724717245364 Z M 190.44279126207437,-22.91471562135456 L 190.33984278401482,-21.920028931554555 A 418.98011984342304 418.98011984342304 0 0 1 261.5210205302626,-8.249850865377658 L 260.7025004763943,-5.363672610069201 L 268.3918564682937,-6.821000448902937 L 262.61238060208706,-12.098088539122266 L 261.79386054821873,-9.21191028381381 A 419.98011984342304 419.98011984342304 0 0 0 190.44279126207437,-22.91471562135456"/><text text-anchor="middle" pointer-events="none" font-size="8px" fill="#000000" x="150.2570003778516" y="-21.635108194553652" font-family="sans-serif">Year_Amended_Max</text></g><g class="relationship" transform="translate(-168.05438795113625 224.4183549566839) rotate(441.8535208046146)"><path class="outline" fill="#A5ABB6" stroke="none" d="M 25 0.5 L 71.41237733763587 0.5 L 71.41237733763587 -0.5 L 25 -0.5 Z M 99.63893983763587 0.5 L 146.05131717527175 0.5 L 146.05131717527175 3.5 L 153.05131717527175 0 L 146.05131717527175 -3.5 L 146.05131717527175 -0.5 L 99.63893983763587 -0.5 Z"/><text text-anchor="middle" pointer-events="none" font-size="8px" fill="#000000" x="85.52565858763587" y="3" font-family="sans-serif">Within</text></g><g class="relationship" transform="translate(115.94810614713414 182.26894019390048) rotate(392.2333629463598)"><path class="outline" fill="#A5ABB6" stroke="none" d="M 27.93071785686863,-28.63782463805517 L 28.637824638055175,-27.930717856868625 A 167.6813963966111 167.6813963966111 0 0 1 111.79874740142506,-73.26247226309201 L 111.58758664973527,-74.23992361070262 A 168.6813963966111 168.6813963966111 0 0 0 27.93071785686863,-28.63782463805517 Z M 189.29955274044892,-72.70705757795008 L 189.0500108435313,-71.73869357527198 A 167.6813963966111 167.6813963966111 0 0 1 270.3586079377082,-23.162783177441145 L 268.1552842510872,-21.126766298342453 L 275.47653460337534,-18.36103072184189 L 273.2963728532029,-25.877472349572734 L 271.0930491665819,-23.841455470474042 A 168.6813963966111 168.6813963966111 0 0 0 189.29955274044892,-72.70705757795008"/><text text-anchor="middle" pointer-events="none" font-size="8px" fill="#000000" x="150.52320458187825" y="-74.51075379237045" font-family="sans-serif">Year_Amended_Min</text></g><g class="relationship" transform="translate(363.32087929698883 338.24912913745914) rotate(375.7531843815711)"><path class="outline" fill="#A5ABB6" stroke="none" d="M 17.324116139070416,18.03122292025696 L 18.031222920256962,17.324116139070412 A 213.11238364934232 213.11238364934232 0 0 0 145.59274363590345,78.48418614191701 L 145.4842014173729,79.47827798213925 A 214.11238364934232 214.11238364934232 0 0 1 17.324116139070416,18.03122292025696 Z M 203.89169319929516,77.83548956810819 L 203.727446470328,76.84907027996366 A 213.11238364934232 213.11238364934232 0 0 0 327.6496041688535,8.615687237767471 L 325.41240189706787,6.616956141517328 L 332.68617710540144,3.7286704529760684 L 330.6325405312343,11.280662032767662 L 328.3953382594487,9.281930936517519 A 214.11238364934232 214.11238364934232 0 0 1 203.89169319929516,77.83548956810819"/><text text-anchor="middle" pointer-events="none" font-size="8px" fill="#000000" x="174.73019196306248" y="83.15884489367531" font-family="sans-serif">Month_Started</text></g><g class="relationship" transform="translate(-87.99852124375658 79.63228408477156) rotate(386.7139421012462)"><path class="outline" fill="#A5ABB6" stroke="none" d="M 25 0.5 L 85.25795335539244 0.5 L 85.25795335539244 -0.5 L 25 -0.5 Z M 121.05873460539244 0.5 L 181.3166879607849 0.5 L 181.3166879607849 3.5 L 188.3166879607849 0 L 181.3166879607849 -3.5 L 181.3166879607849 -0.5 L 121.05873460539244 -0.5 Z"/><text text-anchor="middle" pointer-events="none" font-size="8px" fill="#000000" x="103.15834398039244" y="3" font-family="sans-serif">Handled</text></g></g><g class="layer nodes"><g class="node" transform="translate(686.7175115387741,429.47581602188075)"><circle class="outline" cx="0" cy="0" r="5" fill="#A5ABB6" stroke="#9AA1AC" stroke-width="2px"/><text text-anchor="middle" pointer-events="none" font-family="sans-serif" dy="0.3125" font-size="5" fill="#FFFFFF"/><text class="caption" text-anchor="middle" pointer-events="none" y="5" font-size="10px" fill="#FFFFFF" font-family="sans-serif"/></g><g class="node" transform="translate(42.211582557213674,410.0505983190229)"><circle class="outline" cx="0" cy="0" r="25" fill="#A5ABB6" stroke="#9AA1AC" stroke-width="2px"/><text text-anchor="middle" pointer-events="none" font-family="sans-serif" dy="1.5625" font-size="25" fill="#FFFFFF"/><text class="caption" text-anchor="middle" pointer-events="none" y="5" font-size="10px" fill="#FFFFFF" font-family="sans-serif"> </text></g><g class="node" transform="translate(363.32087929698883,338.24912913745914)"><circle class="outline" cx="0" cy="0" r="25" fill="#FB95AF" stroke="#E0849B" stroke-width="2px"/><text text-anchor="middle" pointer-events="none" font-family="sans-serif" dy="1.5625" font-size="25" fill="#FFFFFF"/><text class="caption" text-anchor="middle" pointer-events="none" y="5" font-size="10px" fill="#FFFFFF" font-family="sans-serif"> </text></g><g class="node" transform="translate(479.61978551238883,43.728524978231064)"><circle class="outline" cx="0" cy="0" r="5" fill="#FFD86E" stroke="#EDBA39" stroke-width="2px"/><text text-anchor="middle" pointer-events="none" font-family="sans-serif" dy="0.3125" font-size="5" fill="#604A0E"/><text class="caption" text-anchor="middle" pointer-events="none" y="5" font-size="10px" fill="#604A0E" font-family="sans-serif"/></g><g class="node" transform="translate(115.94810614713414,182.26894019390048)"><circle class="outline" cx="0" cy="0" r="40" fill="#FFD86E" stroke="#EDBA39" stroke-width="2px"/><text text-anchor="middle" pointer-events="none" font-family="sans-serif" dy="2.5" font-size="40" fill="#604A0E"/><text class="caption" text-anchor="middle" pointer-events="none" y="5" font-size="10px" fill="#604A0E" font-family="sans-serif"> </text></g><g class="node" transform="translate(382.109739983227,-40.7991642404491)"><circle class="outline" cx="0" cy="0" r="10" fill="#FF756E" stroke="#E06760" stroke-width="2px"/><text text-anchor="middle" pointer-events="none" font-family="sans-serif" dy="0.625" font-size="10" fill="#FFFFFF"/><text class="caption" text-anchor="middle" pointer-events="none" y="5" font-size="10px" fill="#FFFFFF" font-family="sans-serif"> </text></g><g class="node" transform="translate(-142.82374934729285,400.67296177163064)"><circle class="outline" cx="0" cy="0" r="25" fill="#A5ABB6" stroke="#9AA1AC" stroke-width="2px"/><text text-anchor="middle" pointer-events="none" font-family="sans-serif" dy="1.5625" font-size="25" fill="#FFFFFF"/><text class="caption" text-anchor="middle" pointer-events="none" y="5" font-size="10px" fill="#FFFFFF" font-family="sans-serif"> </text></g><g class="node" transform="translate(314.8718643231803,46.50572140049459)"><circle class="outline" cx="0" cy="0" r="32.5" fill="#68BDF6" stroke="#5CA8DB" stroke-width="2px"/><text text-anchor="middle" pointer-events="none" font-family="sans-serif" dy="2.03125" font-size="32.5" fill="#FFFFFF"/><text class="caption" text-anchor="middle" pointer-events="none" y="5" font-size="10px" fill="#FFFFFF" font-family="sans-serif"> </text></g><g class="node" transform="translate(-87.99852124375658,79.63228408477156)"><circle class="outline" cx="0" cy="0" r="25" fill="#A5ABB6" stroke="#9AA1AC" stroke-width="2px"/><text text-anchor="middle" pointer-events="none" font-family="sans-serif" dy="1.5625" font-size="25" fill="#FFFFFF"/><text class="caption" text-anchor="middle" pointer-events="none" y="5" font-size="10px" fill="#FFFFFF" font-family="sans-serif"> </text></g><g class="node" transform="translate(-168.05438795113625,224.4183549566839)"><circle class="outline" cx="0" cy="0" r="25" fill="#A5ABB6" stroke="#9AA1AC" stroke-width="2px"/><text text-anchor="middle" pointer-events="none" font-family="sans-serif" dy="1.5625" font-size="25" fill="#FFFFFF"/><text class="caption" text-anchor="middle" pointer-events="none" y="5" font-size="10px" fill="#FFFFFF" font-family="sans-serif"> </text></g><g class="node" transform="translate(98.80443109696893,-28.768614526600118)"><circle class="outline" cx="0" cy="0" r="25" fill="#FB95AF" stroke="#E0849B" stroke-width="2px"/><text text-anchor="middle" pointer-events="none" font-family="sans-serif" dy="1.5625" font-size="25" fill="#FFFFFF"/><text class="caption" text-anchor="middle" pointer-events="none" y="5" font-size="10px" fill="#FFFFFF" font-family="sans-serif"> </text></g></g></svg>